<svg width="398" height="111" viewBox="0 0 398 111" fill="none" xmlns="http://www.w3.org/2000/svg">
<path d="M54.4342 110.18L3.81699 83.5183C2.98487 83.0809 2.24738 82.4837 1.64683 81.761C1.04628 81.0382 0.594478 80.2042 0.317337 79.3065C0.0401951 78.409 -0.0568324 77.4656 0.031823 76.5305C0.120479 75.5954 0.393066 74.687 0.833959 73.8573L37.8235 3.81518C38.7144 2.13868 40.2334 0.882555 42.0485 0.321266C43.8636 -0.240023 45.8273 -0.0608463 47.5106 0.819644L79.6801 17.7577L90.9999 56.4487L64.1212 107.185C63.2303 108.861 61.7114 110.117 59.8963 110.679C58.0812 111.24 56.1175 111.06 54.4342 110.18Z" fill="#029491"/>
<g opacity="0.3">
<path d="M79.6803 17.7573L69.2554 37.4557C68.4342 39.0186 68.2656 40.8427 68.7862 42.5294C69.3069 44.2161 70.4746 45.6285 72.0343 46.458L91.0001 56.4483L79.6803 17.7573Z" fill="white"/>
</g>
<g opacity="0.2">
<path d="M68.5477 39.3223C67.7699 40.8205 67.5281 42.5392 67.8622 44.1937C68.1962 45.848 69.0862 47.3387 70.3846 48.4187L70.9341 48.8735C73.1792 50.63 87.9374 62.1259 88.2043 61.7495C88.4712 61.3731 90.9989 56.4485 90.9989 56.4485L72.0331 46.4581C72.0331 46.4581 67.3231 43.792 68.5477 39.3223Z" fill="black"/>
</g>
<path d="M65.3767 34.4136C65.2354 34.6646 59.8973 32.1082 53.4289 28.6892C46.9604 25.2702 41.8264 22.3217 41.9991 22.0551C42.1719 21.7885 47.4942 24.3606 53.9627 27.7795C60.4311 31.1986 65.5494 34.1627 65.3767 34.4136Z" fill="#FAFAFA"/>
<path d="M74.6097 53.5941C74.4841 53.845 65.7391 49.5008 55.0944 43.8861C44.4497 38.2715 35.9402 33.4566 36.0658 33.2057C36.1914 32.9547 44.9364 37.2991 55.5811 42.9137C66.2258 48.5284 74.751 53.2804 74.6097 53.5941Z" fill="#FAFAFA"/>
<path d="M73.1646 64.6671C73.039 64.918 63.5247 60.1659 51.9223 54.0337C40.3199 47.9015 31.0097 42.7573 31.151 42.5063C31.2923 42.2554 40.8066 47.0075 52.409 53.1241C64.0114 59.2406 73.3059 64.4161 73.1646 64.6671Z" fill="#FAFAFA"/>
<path d="M68.5348 73.4338C68.3935 73.6847 58.8792 68.9326 47.2767 62.8161C35.6743 56.6996 26.3798 51.5241 26.5211 51.2732C26.6624 51.0222 36.161 55.7743 47.7634 61.8908C59.3659 68.0073 68.6918 73.1829 68.5348 73.4338Z" fill="#FAFAFA"/>
<path d="M63.8859 82.2166C63.7603 82.4675 54.246 77.7154 42.6436 71.5831C31.0412 65.451 21.7468 60.3068 21.8724 60.0559C21.998 59.8049 31.5279 64.5727 43.1303 70.6735C54.7327 76.7744 63.9801 81.9657 63.8859 82.2166Z" fill="#FAFAFA"/>
<path d="M59.2708 90.9831C59.1295 91.2341 49.6153 86.482 38.0286 80.3655C26.4418 74.2489 17.1159 69.0734 17.2572 68.8225C17.3985 68.5716 26.8971 73.3236 38.4996 79.4401C50.102 85.5567 59.3964 90.7322 59.2708 90.9831Z" fill="#FAFAFA"/>
<path d="M260.851 85.8937C259.673 85.7262 258.611 85.1023 257.898 84.1589C257.184 83.2155 256.877 82.0297 257.045 80.8622L262.594 42.5787C262.769 41.6161 263.321 40.7615 264.13 40.2018C264.938 39.6421 265.938 39.4229 266.909 39.5922L270.534 40.1142C271.243 40.2227 271.967 40.1346 272.629 39.8597C273.29 39.5849 273.861 39.1339 274.28 38.5568L275.289 37.0937C275.708 36.5166 276.279 36.0657 276.94 35.7908C277.602 35.516 278.327 35.4278 279.035 35.5363L296.296 37.9922C296.945 38.0778 297.562 38.3242 298.09 38.7085C298.618 39.0928 299.04 39.6028 299.316 40.1913L299.972 41.646C300.248 42.2334 300.669 42.7425 301.195 43.1268C301.721 43.5111 302.337 43.758 302.984 43.845L324.949 46.9769C325.928 47.0845 326.824 47.5729 327.441 48.3349C328.057 49.0969 328.343 50.0703 328.237 51.0414L322.558 90.1892C322.474 90.767 322.277 91.3228 321.977 91.8247C321.676 92.3266 321.279 92.765 320.808 93.1147C320.337 93.4644 319.8 93.7185 319.23 93.8626C318.659 94.0066 318.066 94.0378 317.483 93.9543L260.851 85.8937Z" fill="#455A64"/>
<g opacity="0.3">
<path d="M260.851 85.8937C259.673 85.7262 258.611 85.1023 257.898 84.1589C257.184 83.2155 256.877 82.0297 257.045 80.8622L262.594 42.5787C262.769 41.6161 263.321 40.7615 264.13 40.2018C264.938 39.6421 265.938 39.4229 266.909 39.5922L270.534 40.1142C271.243 40.2227 271.967 40.1346 272.629 39.8597C273.29 39.5849 273.861 39.1339 274.28 38.5568L275.289 37.0937C275.708 36.5166 276.279 36.0657 276.94 35.7908C277.602 35.516 278.327 35.4278 279.035 35.5363L296.296 37.9922C296.945 38.0778 297.562 38.3242 298.09 38.7085C298.618 39.0928 299.04 39.6028 299.316 40.1913L299.972 41.646C300.248 42.2334 300.669 42.7425 301.195 43.1268C301.721 43.5111 302.337 43.758 302.984 43.845L324.949 46.9769C325.928 47.0845 326.824 47.5729 327.441 48.3349C328.057 49.0969 328.343 50.0703 328.237 51.0414L322.558 90.1892C322.474 90.767 322.277 91.3228 321.977 91.8247C321.676 92.3266 321.279 92.765 320.808 93.1147C320.337 93.4644 319.8 93.7185 319.23 93.8626C318.659 94.0066 318.066 94.0378 317.483 93.9543L260.851 85.8937Z" fill="black"/>
</g>
<path d="M300.783 43.5456L286.819 41.5176L285.904 39.0275C285.59 38.2144 285.06 37.5006 284.37 36.9613C283.681 36.4221 282.857 36.0776 281.986 35.9641L268.333 34.0217C267.213 33.8242 266.06 34.073 265.124 34.7139C264.188 35.3549 263.546 36.3362 263.336 37.4445L263.111 39.0275L257.07 80.5885C256.932 81.865 257.308 83.1442 258.116 84.1474C258.924 85.1506 260.099 85.7966 261.385 85.9451L316.887 93.92C318.164 94.1418 319.478 93.8529 320.54 93.1169C321.603 92.3809 322.328 91.2574 322.557 89.9925L328.253 50.7334C328.316 50.3168 328.294 49.8923 328.19 49.4839C328.086 49.0757 327.902 48.6919 327.647 48.3547C327.393 48.0174 327.074 47.7335 326.708 47.519C326.343 47.3045 325.938 47.1639 325.518 47.1053L300.783 43.5456Z" fill="#455A64"/>
<path d="M311.999 60.6256L278.982 55.9199L276.985 69.6918L310.002 74.3975L311.999 60.6256Z" fill="white"/>
<path d="M306.013 65.982C306.013 66.1018 300.904 65.4771 294.639 64.5873C288.373 63.6973 283.307 62.8759 283.333 62.7475C283.359 62.6191 288.442 63.2524 294.708 64.1422C300.973 65.0322 306.031 65.8622 306.013 65.982Z" fill="#263238"/>
<path d="M305.591 68.9166C305.591 69.0364 300.482 68.4117 294.217 67.5218C287.951 66.6319 282.885 65.8104 282.902 65.6821C282.919 65.5537 288.011 66.1869 294.277 67.0768C300.543 67.9668 305.609 68.7967 305.591 68.9166Z" fill="#263238"/>
<path d="M361.042 68.8828C360.679 69.0188 360.292 69.0823 359.904 69.0698C359.516 69.0572 359.134 68.969 358.78 68.8101C358.427 68.6511 358.109 68.4245 357.844 68.1433C357.578 67.8621 357.372 67.532 357.236 67.1715L348.087 43.4689C347.983 43.1689 347.939 42.8513 347.958 42.5345C347.977 42.2175 348.059 41.9075 348.2 41.6222C348.34 41.3368 348.536 41.0817 348.776 40.8714C349.016 40.6612 349.295 40.4999 349.598 40.3969L351.842 39.5413C352.281 39.3756 352.666 39.0946 352.957 38.7283C353.247 38.362 353.432 37.9242 353.49 37.4619L353.594 36.3068C353.647 35.8426 353.829 35.4022 354.12 35.035C354.411 34.6677 354.8 34.3881 355.242 34.2274L365.909 30.1714C366.31 30.0177 366.744 29.9654 367.17 30.0192C367.596 30.073 368.002 30.2312 368.352 30.4795L369.214 31.1042C369.563 31.351 369.968 31.5084 370.393 31.5622C370.817 31.6159 371.249 31.5644 371.648 31.4122L385.25 26.2781C385.848 26.0302 386.52 26.027 387.12 26.2691C387.72 26.5113 388.198 26.979 388.452 27.5701L397.807 51.8119C397.945 52.1719 398.01 52.5555 397.998 52.9405C397.986 53.3255 397.897 53.7043 397.737 54.0551C397.576 54.406 397.348 54.7219 397.064 54.9844C396.779 55.2471 396.445 55.4513 396.081 55.5855L361.042 68.8828Z" fill="#029491"/>
<g opacity="0.3">
<path d="M361.041 68.8826C360.678 69.0185 360.291 69.082 359.903 69.0696C359.515 69.057 359.134 68.9687 358.78 68.8098C358.427 68.6509 358.108 68.4243 357.843 68.1431C357.577 67.8619 357.371 67.5317 357.235 67.1712L348.087 43.4687C347.982 43.1686 347.938 42.8511 347.957 42.5342C347.977 42.2173 348.059 41.9073 348.199 41.622C348.339 41.3365 348.535 41.0814 348.775 40.8712C349.015 40.6609 349.294 40.4997 349.597 40.3967L351.841 39.541C352.28 39.3753 352.666 39.0944 352.956 38.728C353.246 38.3617 353.431 37.9239 353.489 37.4617L353.593 36.3065C353.646 35.8424 353.828 35.402 354.119 35.0347C354.411 34.6675 354.799 34.3879 355.241 34.2272L365.909 30.1712C366.31 30.0175 366.743 29.9652 367.169 30.019C367.595 30.0727 368.001 30.2309 368.351 30.4792L369.214 31.1039C369.563 31.3508 369.967 31.5082 370.392 31.5619C370.816 31.6157 371.248 31.5642 371.647 31.412L385.249 26.2778C385.847 26.03 386.519 26.0268 387.119 26.2689C387.719 26.511 388.197 26.9787 388.451 27.5699L397.806 51.8116C397.945 52.1716 398.01 52.5552 397.998 52.9403C397.986 53.3252 397.896 53.704 397.736 54.0549C397.575 54.4057 397.347 54.7216 397.063 54.9842C396.778 55.2469 396.444 55.4511 396.08 55.5853L361.041 68.8826Z" fill="black"/>
</g>
<path d="M370.294 31.9425L361.663 35.2112L360.334 34.0731C359.894 33.7046 359.361 33.4621 358.792 33.3716C358.223 33.2812 357.64 33.3462 357.106 33.5597L348.649 36.7685C347.944 37.0167 347.367 37.5312 347.043 38.1997C346.72 38.8683 346.676 39.6366 346.923 40.3368L347.302 41.3122L357.236 67.0514C357.569 67.829 358.198 68.4448 358.987 68.7652C359.775 69.0856 360.66 69.0847 361.447 68.7628L395.804 55.722C396.612 55.446 397.275 54.8638 397.649 54.1032C398.023 53.3427 398.077 52.4661 397.799 51.6661L388.409 27.3474C388.206 26.8266 387.803 26.4069 387.289 26.1807C386.773 25.9544 386.19 25.9401 385.664 26.1409L370.294 31.9425Z" fill="#029491"/>
<path d="M382.226 38.165L361.778 45.927L365.071 54.4537L385.519 46.6916L382.226 38.165Z" fill="white"/>
<path d="M380.519 43.1523C378.265 44.25 375.945 45.2101 373.572 46.0274C371.258 46.9886 368.885 47.8088 366.469 48.4832C368.713 47.3956 371.019 46.4357 373.373 45.6081C375.705 44.6499 378.091 43.8298 380.519 43.1523Z" fill="#263238"/>
<path d="M381.22 44.9746C378.976 46.0607 376.67 47.0178 374.316 47.8411C371.976 48.7955 369.582 49.6099 367.144 50.2799C369.398 49.1822 371.719 48.222 374.091 47.4048C376.416 46.4528 378.796 45.6412 381.22 44.9746Z" fill="#263238"/>
</svg>
